<svg xmlns="http://www.w3.org/2000/svg" viewBox="0 0 270 280"><defs><linearGradient id="g" y2="1"><stop stop-color="#fb7185"/><stop offset=".42" stop-color="#dc2626"/><stop offset="1" stop-color="#172554"/></linearGradient><filter id="s"><feDropShadow dy="12" stdDeviation="7" flood-opacity=".34"/></filter></defs><ellipse cx="135" cy="260" rx="105" ry="13" fill="#0f172a" opacity=".26"/><g filter="url(#s)" stroke="#e0f2fe" stroke-opacity=".34" stroke-width="4"><path d="M42 98h56v143H25V126h17Zm130 0h56v28h16v115h-72Z" fill="url(#g)"/><path d="M25 126V84h18V60h19v24h20V60h19v66Zm147 0V84h18V60h19v24h20V60h19v66Z" fill="url(#g)"/><path d="M92 241v-78c0-24 18-43 43-43s43 19 43 43v78Z" fill="#0f172a" opacity=".62"/><path d="M135 119V24" stroke="#13213b" stroke-width="7"/><path d="M140 26h70l-21 22 21 22h-70Z" fill="#fb7185"/><path d="M51 148h34M186 148h34M62 182h24M197 182h24" stroke="#fff" stroke-opacity=".34"/></g></svg>