<svg xmlns="http://www.w3.org/2000/svg" viewBox="0 0 180 110"><defs><linearGradient id="g"><stop stop-color="#47deaa"/><stop offset="1" stop-color="#118b72"/></linearGradient><filter id="s"><feDropShadow dy="6" stdDeviation="4" flood-opacity=".3"/></filter></defs><ellipse cx="88" cy="93" rx="67" ry="11" fill="#0f172a" opacity=".25"/><g filter="url(#s)"><path d="M25 74 43 44c5-9 14-14 24-14h47c10 0 19 5 25 14l18 30-9 19H34Z" fill="url(#g)" stroke="#fff" stroke-opacity=".45" stroke-width="3"/><path d="M61 38h52c7 0 13 4 17 11l8 14H49l8-17c1-3 2-5 4-8Z" fill="#bce8ff" opacity=".82"/><path d="M89 38v25" stroke="#31506a" stroke-width="3"/><circle cx="51" cy="88" r="14" fill="#162434"/><circle cx="130" cy="88" r="14" fill="#162434"/><circle cx="51" cy="88" r="6" fill="#a8b8c7"/><circle cx="130" cy="88" r="6" fill="#a8b8c7"/></g></svg>