<svg xmlns="http://www.w3.org/2000/svg" viewBox="0 0 1600 900">
<defs>
 <linearGradient id="sky" x1="0" y1="0" x2="0" y2="1"><stop stop-color="#39bdf7"/><stop offset=".72" stop-color="#c9f1ff"/><stop offset="1" stop-color="#effcff"/></linearGradient>
 <linearGradient id="sand" x1="0" y1="0" x2="0" y2="1"><stop stop-color="#f7d391"/><stop offset="1" stop-color="#d99b50"/></linearGradient>
 <linearGradient id="wall" x1="0" y1="0" x2="0" y2="1"><stop stop-color="#fff4da"/><stop offset="1" stop-color="#e8c899"/></linearGradient>
 <linearGradient id="blueFlag" x1="0" x2="1"><stop stop-color="#0c6edb"/><stop offset="1" stop-color="#2caaff"/></linearGradient>
 <linearGradient id="redFlag" x1="0" x2="1"><stop stop-color="#d92348"/><stop offset="1" stop-color="#ff5d73"/></linearGradient>
 <filter id="ds"><feDropShadow dx="0" dy="7" stdDeviation="8" flood-opacity=".22"/></filter>
</defs>
<rect width="1600" height="900" fill="url(#sky)"/>
<g fill="#fff" opacity=".92"><ellipse cx="175" cy="92" rx="155" ry="47"/><ellipse cx="485" cy="73" rx="125" ry="38"/><ellipse cx="1280" cy="86" rx="180" ry="50"/></g>
<g filter="url(#ds)">
 <rect x="335" y="170" width="930" height="330" rx="20" fill="url(#wall)" stroke="#d99d63" stroke-width="8"/>
 <rect x="690" y="97" width="220" height="403" rx="18" fill="#f7ddb5" stroke="#d99d63" stroke-width="8"/>
 <path d="M663 112L800 35l137 77Z" fill="#df5c4c" stroke="#bc463b" stroke-width="7"/>
 <circle cx="800" cy="178" r="48" fill="#f7fbff" stroke="#6e8294" stroke-width="10"/>
 <line x1="800" y1="178" x2="800" y2="144" stroke="#465767" stroke-width="7" stroke-linecap="round"/>
 <line x1="800" y1="178" x2="825" y2="194" stroke="#465767" stroke-width="7" stroke-linecap="round"/>
 <g fill="#8bd1ee" stroke="#fff" stroke-width="7">
  <rect x="390" y="232" width="145" height="99" rx="8"/><rect x="557" y="232" width="95" height="99" rx="8"/>
  <rect x="948" y="232" width="95" height="99" rx="8"/><rect x="1065" y="232" width="145" height="99" rx="8"/>
  <rect x="390" y="351" width="145" height="99" rx="8"/><rect x="1065" y="351" width="145" height="99" rx="8"/>
 </g>
 <rect x="742" y="330" width="116" height="170" rx="10" fill="#6db8dc" stroke="#fff" stroke-width="7"/>
</g>
<g stroke="#fff" stroke-width="4">
 <path d="M260 332Q800 260 1340 332" fill="none"/>
 <g>
  <path d="M310 324l34 11-32 20Z" fill="#1688ed"/><path d="M390 310l34 10-31 22Z" fill="#ef3e58"/>
  <path d="M470 299l35 9-30 23Z" fill="#fff"/><path d="M550 290l34 8-29 24Z" fill="#1688ed"/>
  <path d="M630 283l34 8-29 24Z" fill="#ef3e58"/><path d="M710 279l34 7-28 24Z" fill="#fff"/>
  <path d="M790 278l34 7-28 24Z" fill="#1688ed"/><path d="M870 280l34 8-29 23Z" fill="#ef3e58"/>
  <path d="M950 285l34 8-29 24Z" fill="#fff"/><path d="M1030 293l34 9-30 23Z" fill="#1688ed"/>
  <path d="M1110 304l34 10-31 22Z" fill="#ef3e58"/><path d="M1190 317l34 11-32 20Z" fill="#fff"/>
 </g>
</g>
<g>
 <path d="M0 370L150 265l150 105v190H0Z" fill="#1185e9"/><path d="M1300 370l150-105 150 105v190h-300Z" fill="#ef3f5b"/>
 <path d="M0 384h300" stroke="#bdeeff" stroke-width="10"/><path d="M1300 384h300" stroke="#ffe4e9" stroke-width="10"/>
</g>
<g fill="#3f9e45"><circle cx="140" cy="440" r="112"/><circle cx="285" cy="455" r="100"/><circle cx="1315" cy="455" r="105"/><circle cx="1470" cy="438" r="115"/></g>
<g fill="#297637"><rect x="130" y="420" width="22" height="135"/><rect x="278" y="430" width="21" height="125"/><rect x="1308" y="430" width="21" height="125"/><rect x="1464" y="415" width="22" height="140"/></g>
<rect y="510" width="1600" height="390" fill="url(#sand)"/>
<g stroke="#fff" fill="none" opacity=".85"><line x1="0" y1="698" x2="1600" y2="698" stroke-width="7"/><line x1="800" y1="510" x2="800" y2="900" stroke-width="8"/><circle cx="800" cy="698" r="112" stroke-width="7"/></g>
<g>
 <rect x="243" y="270" width="22" height="250" fill="#6e5138"/><path d="M265 275h150l-35 62 35 62H265Z" fill="url(#blueFlag)"/>
 <rect x="1335" y="270" width="22" height="250" fill="#6e5138"/><path d="M1335 275h-150l35 62-35 62h150Z" fill="url(#redFlag)"/>
 <rect x="500" y="315" width="18" height="205" fill="#6e5138"/><path d="M518 320h115l-26 48 26 48H518Z" fill="#0f7fe5"/>
 <rect x="1082" y="315" width="18" height="205" fill="#6e5138"/><path d="M1082 320H967l26 48-26 48h115Z" fill="#ee3855"/>
</g>
<g opacity=".95">
 <rect x="0" y="480" width="340" height="18" fill="#d6e6ea"/><rect x="1260" y="480" width="340" height="18" fill="#d6e6ea"/>
 <g fill="#f5bc93" stroke="#925e48" stroke-width="2">
  <circle cx="25" cy="455" r="14"/><circle cx="61" cy="448" r="14"/><circle cx="97" cy="455" r="14"/><circle cx="133" cy="448" r="14"/><circle cx="169" cy="455" r="14"/><circle cx="205" cy="448" r="14"/><circle cx="241" cy="455" r="14"/><circle cx="277" cy="448" r="14"/><circle cx="313" cy="455" r="14"/>
  <circle cx="1280" cy="455" r="14"/><circle cx="1316" cy="448" r="14"/><circle cx="1352" cy="455" r="14"/><circle cx="1388" cy="448" r="14"/><circle cx="1424" cy="455" r="14"/><circle cx="1460" cy="448" r="14"/><circle cx="1496" cy="455" r="14"/><circle cx="1532" cy="448" r="14"/><circle cx="1568" cy="455" r="14"/>
 </g>
 <g fill="#1f2937"><path d="M13 451q12-19 24 0Z"/><path d="M49 444q12-19 24 0Z"/><path d="M85 451q12-19 24 0Z"/><path d="M121 444q12-19 24 0Z"/><path d="M157 451q12-19 24 0Z"/><path d="M193 444q12-19 24 0Z"/><path d="M229 451q12-19 24 0Z"/><path d="M265 444q12-19 24 0Z"/><path d="M301 451q12-19 24 0Z"/><path d="M1268 451q12-19 24 0Z"/><path d="M1304 444q12-19 24 0Z"/><path d="M1340 451q12-19 24 0Z"/><path d="M1376 444q12-19 24 0Z"/><path d="M1412 451q12-19 24 0Z"/><path d="M1448 444q12-19 24 0Z"/><path d="M1484 451q12-19 24 0Z"/><path d="M1520 444q12-19 24 0Z"/><path d="M1556 451q12-19 24 0Z"/></g>
</g>
<g opacity=".85">
 <ellipse cx="80" cy="875" rx="105" ry="70" fill="#111827"/><ellipse cx="300" cy="875" rx="115" ry="72" fill="#172033"/>
 <ellipse cx="520" cy="890" rx="118" ry="76" fill="#d7e2ef"/><ellipse cx="830" cy="890" rx="125" ry="80" fill="#111827"/>
 <ellipse cx="1130" cy="882" rx="125" ry="75" fill="#1768c7"/><ellipse cx="1450" cy="878" rx="115" ry="73" fill="#d52b4b"/>
</g>
</svg>